M48
; DRILL file {KiCad (5.1.9-0-10_14)} date Tuesday, March 16, 2021 at 01:22:10 PM
; FORMAT={-:-/ absolute / metric / decimal}
; #@! TF.CreationDate,2021-03-16T13:22:10-07:00
; #@! TF.GenerationSoftware,Kicad,Pcbnew,(5.1.9-0-10_14)
; #@! TF.FileFunction,Plated,1,2,PTH
FMAT,2
METRIC
T1C0.400
T2C0.800
T3C1.000
T4C1.016
T5C1.500
%
G90
G05
T1
X85.09Y-72.39
X90.17Y-73.66
X93.98Y-73.66
X94.615Y-47.625
X94.615Y-50.165
X94.615Y-52.705
X95.885Y-72.39
X104.14Y-69.85
T2
X74.17Y-147.96
X74.17Y-149.23
X74.17Y-150.5
X74.17Y-151.77
X75.359Y-143.514
X75.364Y-156.215
X75.994Y-142.414
X75.999Y-157.314
X76.629Y-141.314
X76.634Y-158.414
X77.264Y-140.215
X77.269Y-159.514
X80.516Y-136.959
X80.525Y-162.766
X80.645Y-106.68
X80.645Y-116.84
X81.616Y-136.324
X81.624Y-163.401
X82.716Y-135.689
X82.724Y-164.036
X83.815Y-135.054
X83.824Y-164.671
X84.455Y-106.68
X84.455Y-116.84
X88.26Y-133.86
X88.265Y-111.76
X88.265Y-116.76
X88.27Y-165.86
X89.53Y-133.86
X89.54Y-165.86
X90.8Y-133.86
X90.81Y-165.86
X92.07Y-133.86
X92.075Y-111.76
X92.075Y-116.76
X92.08Y-165.86
X95.885Y-106.68
X95.885Y-116.84
X96.516Y-135.049
X96.525Y-164.666
X97.616Y-135.684
X97.624Y-164.031
X98.716Y-136.319
X98.724Y-163.396
X99.695Y-106.68
X99.695Y-116.84
X99.815Y-136.954
X99.824Y-162.761
X103.071Y-140.206
X103.076Y-159.505
X103.706Y-141.306
X103.711Y-158.406
X104.341Y-142.406
X104.346Y-157.306
X104.976Y-143.505
X104.981Y-156.206
X106.17Y-147.95
X106.17Y-149.22
X106.17Y-150.49
X106.17Y-151.76
T3
X73.66Y-50.8
X73.66Y-53.34
X81.28Y-77.47
X82.55Y-147.32
X82.55Y-149.82
X82.55Y-152.32
X83.82Y-77.47
X86.36Y-77.47
X88.9Y-77.47
X91.44Y-77.47
X93.98Y-77.47
X96.52Y-77.47
X97.05Y-147.32
X97.05Y-152.32
X99.06Y-77.47
T4
X82.55Y-39.37
X82.55Y-41.91
X82.55Y-44.45
X82.55Y-46.99
X82.55Y-49.53
X82.55Y-52.07
X82.55Y-54.61
X82.55Y-57.15
X82.55Y-59.69
X82.55Y-62.23
X82.55Y-64.77
X82.55Y-67.31
X97.79Y-39.37
X97.79Y-41.91
X97.79Y-44.45
X97.79Y-46.99
X97.79Y-49.53
X97.79Y-52.07
X97.79Y-54.61
X97.79Y-57.15
X97.79Y-59.69
X97.79Y-62.23
X97.79Y-64.77
X97.79Y-67.31
T5
X59.69Y-63.5
X59.69Y-81.28
X59.69Y-99.06
X59.69Y-116.84
X66.04Y-60.96
X66.04Y-78.74
X66.04Y-96.52
X66.04Y-114.3
X115.57Y-63.5
X115.57Y-81.28
X115.57Y-99.06
X115.57Y-116.84
X121.92Y-60.96
X121.92Y-78.74
X121.92Y-96.52
X121.92Y-114.3
T5
G00X89.4Y-144.22
M15
G01X90.7Y-144.22
M16
G05
G00X89.4Y-155.42
M15
G01X90.7Y-155.42
M16
G05
T0
M30
