M48
; DRILL file {KiCad (5.1.9-0-10_14)} date Tuesday, March 16, 2021 at 01:22:10 PM
; FORMAT={-:-/ absolute / metric / decimal}
; #@! TF.CreationDate,2021-03-16T13:22:10-07:00
; #@! TF.GenerationSoftware,Kicad,Pcbnew,(5.1.9-0-10_14)
; #@! TF.FileFunction,NonPlated,1,2,NPTH
FMAT,2
METRIC
T1C1.700
T2C3.200
T3C4.000
%
G90
G05
T1
X57.15Y-58.42
X57.15Y-76.2
X57.15Y-93.98
X57.15Y-111.76
X67.31Y-58.42
X67.31Y-76.2
X67.31Y-93.98
X67.31Y-111.76
X113.03Y-58.42
X113.03Y-76.2
X113.03Y-93.98
X113.03Y-111.76
X123.19Y-58.42
X123.19Y-76.2
X123.19Y-93.98
X123.19Y-111.76
T2
X65.17Y-45.33
X65.17Y-135.33
X73.67Y-39.03
X73.67Y-123.53
X74.17Y-166.33
X106.17Y-166.33
X106.67Y-39.03
X106.67Y-123.53
X115.17Y-45.33
X115.17Y-135.33
T3
X62.23Y-58.42
X62.23Y-76.2
X62.23Y-93.98
X62.23Y-111.76
X118.11Y-58.42
X118.11Y-76.2
X118.11Y-93.98
X118.11Y-111.76
T0
M30
